<?xml version="1.0" standalone="no"?>
<!DOCTYPE svg PUBLIC "-//W3C//DTD SVG 20010904//EN"
 "http://www.w3.org/TR/2001/REC-SVG-20010904/DTD/svg10.dtd">
<svg version="1.0" xmlns="http://www.w3.org/2000/svg"
 width="200.000000pt" height="200.000000pt" viewBox="0 0 200.000000 200.000000"
 preserveAspectRatio="xMidYMid meet">
<metadata>
Created by potrace 1.14, written by Peter Selinger 2001-2017
</metadata>
<g transform="translate(0.000000,200.000000) scale(0.100000,-0.100000)"
fill="#000000" stroke="none">
<path d="M1510 1703 c-46 -8 -94 -25 -167 -61 l-73 -34 -62 15 c-87 22 -262
16 -344 -11 -214 -71 -362 -211 -436 -413 -38 -107 -49 -269 -25 -363 l16 -59
-39 -72 c-82 -150 -109 -285 -72 -354 65 -121 264 -86 531 93 87 58 97 62 130
55 48 -11 177 -3 231 14 149 48 274 175 320 328 18 59 22 222 7 247 -6 8 9 41
41 90 140 220 185 380 129 463 -38 57 -98 77 -187 62z m111 -94 c41 -41 12
-157 -78 -315 -26 -46 -51 -84 -55 -84 -4 0 -20 19 -36 43 -61 88 -160 159
-262 188 -57 16 -171 20 -235 8 -157 -29 -318 -178 -363 -334 -33 -118 -20
-252 35 -362 31 -63 127 -164 180 -192 l35 -18 -53 -35 c-150 -98 -251 -143
-332 -147 -108 -6 -116 69 -30 261 l26 59 25 -43 c35 -59 87 -109 106 -102 19
7 33 53 19 63 -5 3 -26 35 -48 70 -203 337 -25 775 353 872 56 14 98 18 171
15 132 -6 221 -37 328 -114 26 -18 37 -21 52 -13 46 25 34 53 -41 101 -53 35
-57 39 -36 45 13 4 37 13 53 21 86 38 156 43 186 13z"/>
<path d="M277 1641 c-30 -18 -57 -66 -57 -103 0 -47 46 -106 90 -116 78 -18
150 38 150 116 0 39 -23 83 -52 101 -30 19 -99 20 -131 2z"/>
<path d="M1702 1273 c-31 -28 -35 -56 -11 -86 25 -33 68 -36 94 -7 53 59 -23
145 -83 93z"/>
<path d="M1651 1101 c-11 -7 -14 -32 -14 -106 2 -224 -84 -390 -266 -512 -94
-63 -179 -87 -311 -90 -63 -1 -120 -2 -126 -3 -20 0 -24 -43 -6 -63 15 -18 28
-19 142 -14 107 4 137 9 207 35 204 76 344 223 415 436 28 82 35 271 12 304
-16 24 -31 27 -53 13z"/>
</g>
</svg>
